<svg width="72" height="65" viewBox="0 0 72 65" fill="none" xmlns="http://www.w3.org/2000/svg">
<path d="M18 59.5833C16.35 59.5833 14.938 59.0534 13.764 57.9935C12.59 56.9336 12.002 55.658 12 54.1666V10.8333C12 9.34371 12.588 8.06899 13.764 7.00913C14.94 5.94927 16.352 5.41843 18 5.41663H57C57.85 5.41663 58.563 5.67663 59.139 6.19663C59.715 6.71663 60.002 7.3594 60 8.12496C59.998 8.89051 59.71 9.5342 59.136 10.056C58.562 10.5778 57.85 10.8369 57 10.8333H54V16.25C54 17.0173 53.712 17.661 53.136 18.181C52.56 18.701 51.848 18.9601 51 18.9583H27C26.15 18.9583 25.438 18.6983 24.864 18.1783C24.29 17.6583 24.002 17.0155 24 16.25V10.8333H18V54.1666H30.15C28.25 52.9479 26.75 51.4014 25.65 49.5273C24.55 47.6531 24 45.5884 24 43.3333V35.2083C24 33.7187 24.588 32.444 25.764 31.3841C26.94 30.3243 28.352 29.7934 30 29.7916H48C49.65 29.7916 51.063 30.3225 52.239 31.3841C53.415 32.4458 54.002 33.7205 54 35.2083V43.3333C54 45.5902 53.45 47.6558 52.35 49.53C51.25 51.4041 49.75 52.9497 47.85 54.1666H57C57.85 54.1666 58.563 54.4266 59.139 54.9466C59.715 55.4666 60.002 56.1094 60 56.875C59.998 57.6405 59.71 58.2842 59.136 58.806C58.562 59.3278 57.85 59.5869 57 59.5833H18ZM41.139 26.3033C41.713 25.7851 42 25.1423 42 24.375C42 23.6076 41.712 22.9648 41.136 22.4466C40.56 21.9284 39.848 21.6684 39 21.6666C38.152 21.6648 37.44 21.9248 36.864 22.4466C36.288 22.9684 36 23.6112 36 24.375C36 25.1387 36.288 25.7824 36.864 26.306C37.44 26.8296 38.152 27.0887 39 27.0833C39.848 27.0779 40.561 26.8179 41.139 26.3033Z" fill="white"/>
</svg>
