<svg width="68" height="65" viewBox="0 0 68 65" fill="none" xmlns="http://www.w3.org/2000/svg">
<path d="M14.1667 56.875C12.6083 56.875 11.2748 56.3451 10.166 55.2852C9.05722 54.2253 8.50189 52.9497 8.5 51.4583V13.5417C8.5 12.0521 9.05533 10.7774 10.166 9.7175C11.2767 8.65764 12.6102 8.12681 14.1667 8.125H53.8333C55.3917 8.125 56.7262 8.65583 57.8368 9.7175C58.9475 10.7792 59.5019 12.0539 59.5 13.5417V51.4583C59.5 52.9479 58.9456 54.2235 57.8368 55.2852C56.7281 56.3469 55.3936 56.8768 53.8333 56.875H14.1667ZM34 32.5L41.0833 28.4375L48.1667 32.5V13.5417H34V32.5Z" fill="white"/>
</svg>
