<svg width="74" height="74" viewBox="0 0 74 74" fill="none" xmlns="http://www.w3.org/2000/svg">
<path d="M13.0503 59.1471C16.5212 56.6481 20.2043 54.6731 24.0998 53.2222C27.9926 51.7685 32.2093 51.0417 36.75 51.0417C41.2907 51.0417 45.5074 51.7685 49.4002 53.2222C53.2929 54.6758 56.9761 56.6494 60.4497 59.143C63.1447 56.3527 65.3129 53.0588 66.9544 49.2613C68.5959 45.4584 69.4167 41.2879 69.4167 36.75C69.4167 27.6986 66.2358 19.9906 59.8739 13.6261C53.5121 7.26153 45.8041 4.08061 36.75 4.08333C27.6959 4.08606 19.9879 7.26833 13.6261 13.6302C7.26426 19.992 4.08334 27.6986 4.08334 36.75C4.08334 41.2879 4.90409 45.4584 6.54559 49.2613C8.18709 53.0616 10.3553 56.3554 13.0503 59.143M28.0443 35.2473C25.6815 32.8844 24.5 29.9826 24.5 26.5417C24.5 23.1008 25.6815 20.1989 28.0443 17.836C30.4072 15.4731 33.3091 14.2917 36.75 14.2917C40.1909 14.2917 43.0928 15.4731 45.4557 17.836C47.8186 20.1989 49 23.1008 49 26.5417C49 29.9826 47.8186 32.8844 45.4557 35.2473C43.0928 37.6102 40.1909 38.7917 36.75 38.7917C33.3091 38.7917 30.4072 37.6102 28.0443 35.2473ZM36.75 73.5C31.6241 73.5 26.8261 72.5459 22.3563 70.6376C17.8864 68.7293 13.9963 66.1214 10.6861 62.8139C7.37587 59.5064 4.76798 55.6164 2.86242 51.1437C0.956867 46.6711 0.00272803 41.8732 5.80844e-06 36.75C-0.00271641 31.6268 0.951422 26.8289 2.86242 22.3563C4.77342 17.8836 7.38131 13.9936 10.6861 10.6861C13.9963 7.37858 17.8864 4.77069 22.3563 2.86242C26.8261 0.954139 31.6241 0 36.75 0C41.8759 0 46.6739 0.954139 51.1438 2.86242C55.6136 4.77069 59.5037 7.37858 62.8139 10.6861C66.1241 13.9936 68.732 17.8836 70.6376 22.3563C72.5432 26.8289 73.4973 31.6268 73.5 36.75C73.5027 41.8732 72.5486 46.6711 70.6376 51.1437C68.7266 55.6164 66.1187 59.5064 62.8139 62.8139C59.5037 66.1214 55.6136 68.7293 51.1438 70.6376C46.6739 72.5459 41.8759 73.5 36.75 73.5Z" fill="black"/>
</svg>
