<svg width="52" height="57" viewBox="0 0 52 57" fill="none" xmlns="http://www.w3.org/2000/svg">
<path d="M21.6666 50.4687V36.2187H19.5C18.8861 36.2187 18.3719 35.9907 17.9573 35.5347C17.5428 35.0787 17.3348 34.515 17.3333 33.8437V21.9687C17.3333 20.6625 17.758 19.5446 18.6073 18.6152C19.4566 17.6858 20.4764 17.2203 21.6666 17.2187H30.3333C31.525 17.2187 32.5455 17.6842 33.3948 18.6152C34.2441 19.5462 34.6681 20.664 34.6666 21.9687V33.8437C34.6666 34.5166 34.4586 35.0811 34.0426 35.5371C33.6266 35.9931 33.1124 36.2203 32.5 36.2187H30.3333V50.4687C30.3333 51.1416 30.1253 51.7061 29.7093 52.1621C29.2933 52.6181 28.7791 52.8453 28.1666 52.8437H23.8333C23.2194 52.8437 22.7052 52.6157 22.2906 52.1597C21.8761 51.7037 21.6681 51.14 21.6666 50.4687ZM24.4833 13.775L22.6416 11.7562C22.2083 11.2812 21.9916 10.727 21.9916 10.0937C21.9916 9.46037 22.2083 8.9062 22.6416 8.4312L24.4833 6.41245C24.9166 5.93745 25.4222 5.69995 26 5.69995C26.5778 5.69995 27.0833 5.93745 27.5166 6.41245L29.3583 8.4312C29.7916 8.9062 30.0083 9.46037 30.0083 10.0937C30.0083 10.727 29.7916 11.2812 29.3583 11.7562L27.5166 13.775C27.0833 14.25 26.5778 14.4875 26 14.4875C25.4222 14.4875 24.9166 14.25 24.4833 13.775Z" fill="#FFFEFE"/>
</svg>
