<svg width="71" height="45" viewBox="0 0 71 45" fill="none" xmlns="http://www.w3.org/2000/svg">
<path d="M6.32933 44.3334C4.52506 44.3334 3.01975 43.8457 1.81342 42.8704C0.607084 41.895 0.00261111 40.6769 0 39.216V5.11736C0 3.65858 0.604472 2.44152 1.81342 1.46619C3.02236 0.490855 4.52636 0.00213295 6.32542 2.1839e-05H20.4881C21.0443 2.1839e-05 21.5103 0.150967 21.8863 0.452856C22.2623 0.754744 22.449 1.13158 22.4464 1.58336C22.4438 2.03513 22.2571 2.41197 21.8863 2.71385C21.5156 3.01574 21.0482 3.16669 20.4842 3.16669H6.32933C5.72617 3.16669 5.17261 3.36935 4.66867 3.77469C4.16472 4.18002 3.91406 4.62758 3.91667 5.11736V39.2192C3.91667 39.7047 4.16733 40.1512 4.66867 40.5587C5.17 40.9661 5.72225 41.1688 6.32542 41.1667H64.1746C64.7751 41.1667 65.3274 40.964 65.8313 40.5587C66.3353 40.1534 66.5859 39.7069 66.5833 39.2192V5.11419C66.5833 4.62863 66.3327 4.18213 65.8313 3.77469C65.33 3.36724 64.7778 3.16458 64.1746 3.16669H50.0119C49.4557 3.16669 48.9897 3.01574 48.6137 2.71385C48.2377 2.41197 48.0523 2.03513 48.0575 1.58336C48.0627 1.13158 48.2494 0.754744 48.6176 0.452856C48.9858 0.150967 49.4518 2.1839e-05 50.0158 2.1839e-05H64.1785C65.9802 2.1839e-05 67.4842 0.488743 68.6905 1.46619C69.8968 2.44363 70.5 3.66069 70.5 5.11736V39.2192C70.5 40.6759 69.8955 41.8929 68.6866 42.8704C67.4776 43.8478 65.9736 44.3355 64.1746 44.3334H6.32933ZM33.2917 25.2859V1.58336C33.2917 1.13369 33.4784 0.756856 33.8517 0.452856C34.2251 0.148856 34.6912 -0.00208927 35.25 2.1839e-05C35.8088 0.00213295 36.2749 0.153078 36.6483 0.452856C37.0216 0.752633 37.2083 1.12947 37.2083 1.58336V25.2859L47.9635 16.5902C48.3291 16.2925 48.7782 16.1342 49.3108 16.1152C49.8435 16.0962 50.3187 16.2545 50.7365 16.5902C51.1543 16.9259 51.3632 17.2985 51.3632 17.708C51.3632 18.1176 51.1543 18.4912 50.7365 18.829L37.4629 29.5609C36.831 30.0717 36.0934 30.3272 35.25 30.3272C34.4066 30.3272 33.669 30.0717 33.0371 29.5609L19.7635 18.829C19.3979 18.5335 19.2021 18.1704 19.176 17.7397C19.1499 17.309 19.3457 16.9259 19.7635 16.5902C20.1813 16.2545 20.6434 16.0856 21.15 16.0835C21.6566 16.0814 22.1187 16.2503 22.5365 16.5902L33.2917 25.2859Z" fill="black"/>
</svg>
