<svg width="60" height="43" viewBox="0 0 60 43" fill="none" xmlns="http://www.w3.org/2000/svg">
<path d="M5.38667 43C3.85111 43 2.57 42.527 1.54333 41.581C0.516667 40.635 0.00222222 39.4535 0 38.0366V4.96343C0 3.54852 0.514445 2.36807 1.54333 1.42207C2.57222 0.476071 3.85222 0.00204762 5.38333 0H54.6167C56.15 0 57.43 0.474023 58.4567 1.42207C59.4833 2.37012 59.9978 3.55057 60 4.96343V38.0396C60 39.4525 59.4856 40.6329 58.4567 41.581C57.4278 42.529 56.1478 43.002 54.6167 43H5.38667ZM5.38667 39.9286H40V27.9991H3.33333V38.0396C3.33333 38.5106 3.54667 38.9437 3.97333 39.3389C4.4 39.734 4.87 39.9306 5.38333 39.9286M43.3333 39.9286H54.6167C55.1278 39.9286 55.5978 39.732 56.0267 39.3389C56.4556 38.9457 56.6689 38.5116 56.6667 38.0366V12.9952H43.3333V39.9286ZM3.33333 24.9277H40V12.9921H3.33333V24.9277Z" fill="black"/>
</svg>
