<svg width="65" height="46" viewBox="0 0 65 46" fill="none" xmlns="http://www.w3.org/2000/svg">
<path d="M5.074 20.125L13.1222 13.6678C13.4566 13.3994 13.6358 13.0698 13.6597 12.6788C13.6836 12.2878 13.5044 11.9389 13.1222 11.6323C12.7399 11.3256 12.3171 11.1723 11.8537 11.1723C11.3902 11.1723 10.9674 11.3256 10.5852 11.6323L2.02817 18.4978C1.44767 18.9635 1.15742 19.5059 1.15742 20.125C1.15742 20.7441 1.44767 21.2865 2.02817 21.7523L10.5852 28.6178C10.9196 28.8861 11.3305 29.0299 11.8178 29.049C12.3052 29.0682 12.7399 28.9244 13.1222 28.6178C13.5044 28.3111 13.6955 27.9719 13.6955 27.6C13.6955 27.2282 13.5044 26.8889 13.1222 26.5823L5.074 20.125ZM59.4296 20.125L51.3814 26.5823C51.0446 26.8506 50.8654 27.1803 50.8439 27.5713C50.8224 27.9623 51.0016 28.3111 51.3814 28.6178C51.7612 28.9244 52.1829 29.0778 52.6463 29.0778C53.1098 29.0778 53.5326 28.9244 53.9148 28.6178L62.4754 21.7523C63.0535 21.2865 63.3426 20.7441 63.3426 20.125C63.3426 19.5059 63.0535 18.9645 62.4754 18.5007L53.9148 11.6323C53.5804 11.3639 53.1695 11.2202 52.6822 11.201C52.1948 11.1819 51.7612 11.3256 51.3814 11.6323C51.0016 11.9389 50.8105 12.2782 50.8081 12.65C50.8057 13.0219 50.9968 13.3611 51.3814 13.6678L59.4296 20.125ZM0 7.96377V4.64315C0 3.31873 0.553028 2.21282 1.65908 1.3254C2.76514 0.437983 4.14114 -0.0038086 5.78708 2.47312e-05H58.7129C60.3612 2.47312e-05 61.7373 0.442774 62.8409 1.32827C63.9446 2.21377 64.4976 3.31873 64.5 4.64315V7.96377C64.5 8.37394 64.3292 8.71607 63.9876 8.99015C63.646 9.26423 63.2196 9.40127 62.7083 9.40127C62.1971 9.40127 61.7707 9.26423 61.4291 8.99015C61.0875 8.71607 60.9167 8.37298 60.9167 7.9609V4.64315C60.9167 4.12757 60.71 3.70398 60.2967 3.3724C59.8835 3.04082 59.3555 2.87502 58.7129 2.87502H5.78708C5.14447 2.87502 4.61653 3.04082 4.20325 3.3724C3.78997 3.70398 3.58333 4.12853 3.58333 4.64603V7.9609C3.58333 8.37107 3.41253 8.71319 3.07092 8.98727C2.72931 9.26136 2.30289 9.3984 1.79167 9.3984C1.28044 9.3984 0.854027 9.26136 0.512416 8.98727C0.170805 8.71319 0 8.37394 0 7.96377ZM24.3953 46C23.564 46 22.8736 45.7796 22.3242 45.3388C21.7747 44.8979 21.5 44.344 21.5 43.677V40.25H5.79067C4.13995 40.25 2.76275 39.8073 1.65908 38.9218C0.555417 38.0363 0.00238889 36.9304 0 35.604V32.3035C0 31.8953 0.170805 31.557 0.512416 31.2887C0.856416 31.0203 1.28283 30.8862 1.79167 30.8862C2.3005 30.8862 2.72692 31.0232 3.07092 31.2973C3.41492 31.5714 3.58572 31.9125 3.58333 32.3208V35.604C3.58333 36.1215 3.78997 36.5461 4.20325 36.8776C4.61653 37.2092 5.14567 37.375 5.79067 37.375H58.7129C59.3555 37.375 59.8835 37.2092 60.2967 36.8776C60.71 36.5461 60.9167 36.1215 60.9167 35.604V32.3035C60.9167 31.8953 61.0875 31.557 61.4291 31.2887C61.7707 31.0203 62.1971 30.8862 62.7083 30.8862C63.2196 30.8862 63.646 31.0232 63.9876 31.2973C64.3292 31.5714 64.5 31.9125 64.5 32.3208V35.604C64.5 36.9284 63.947 38.0334 62.8409 38.9189C61.7349 39.8044 60.3589 40.2481 58.7129 40.25H43V43.677C43 44.3459 42.7253 44.8999 42.1758 45.3388C41.6264 45.7777 40.936 45.9981 40.1047 46H24.3953Z" fill="black"/>
</svg>
